# xmcd
# 
# Track frame offsets:
#     150
#     15482
#     39711
#     58767
#     77059
#     98214
#     118147
#     136606
#     161410
#     180770
#     198376
#     220762
#     237109
#     254805
# 
# Disc length: 3597
# 
# Revision: 2
# Processed by: cddbd v1.5.2PL0 Copyright (c) Steve Scherf et al.
# Submitted via: BonkEnc v1.0
# 
DISCID=b60e0b0e
DTITLE=Roachford - Word Of Mouth
DYEAR=2005
DGENRE=Pop
TTITLE0=Open Road
TTITLE1=Tomorrow
TTITLE2=Rock You
TTITLE3=Runaway
TTITLE4=River Of Love
TTITLE5=Way To My Heart
TTITLE6=Together
TTITLE7=Crazy Love
TTITLE8=Work It Out
TTITLE9=Pop Muzak
TTITLE10=Everything
TTITLE11=It's Alright
TTITLE12=Shake It!
TTITLE13=River Of Love (Full Intentention Radio Mix)
EXTD=
EXTT0=
EXTT1=
EXTT2=
EXTT3=
EXTT4=
EXTT5=
EXTT6=
EXTT7=
EXTT8=
EXTT9=
EXTT10=
EXTT11=
EXTT12=
EXTT13=
PLAYORDER=
